<?xml version="1.0" encoding="UTF-8"?>
<svg width="1018px" height="72px" version="1.1" viewBox="0 0 1018 72" xml:space="preserve" xmlns="http://www.w3.org/2000/svg"><rect y="8.8818e-16" width="1018" height="72" fill="#00325b" stroke-width=".19865"/><g transform="translate(-1.3331 .39614)"><g transform="scale(1.2845 .77853)" stroke-width="2.8407" aria-label="EmojiTerra"><path d="m243.44 5.2017h34.088v11.363h-21.589v21.021h17.158v11.363h-17.158v24.43h21.589v11.363h-34.088z" fill="#2097fc"/><path d="m279.53 17.889h14.994l6.6851 47.846h0.19101l6.6851-47.846h14.994v66.851h-9.9322v-50.616h-0.191l-7.6401 50.616h-8.7861l-7.6401-50.616h-0.191v50.616h-9.1682z" fill="#fff"/><path d="m341.68 85.695q-7.7356 0-11.842-4.3931-4.1066-4.3931-4.1066-12.415v-35.145q0-8.0221 4.1066-12.415 4.1066-4.3931 11.842-4.3931 7.7356 0 11.842 4.3931 4.1066 4.3931 4.1066 12.415v35.145q0 8.0221-4.1066 12.415-4.1066 4.3931-11.842 4.3931zm0-9.5502q5.4436 0 5.4436-6.5896v-36.482q0-6.5896-5.4436-6.5896-5.4436 0-5.4436 6.5896v36.482q0 6.5896 5.4436 6.5896z" fill="#fff"/><path d="m362.95 85.122q-2.865 0-4.8706-0.38201v-9.5502q1.528 0.38201 3.438 0.38201 3.1516 0 4.6796-1.528 1.528-1.6235 1.528-4.8706v-51.284h10.505v50.998q0 8.2131-3.8201 12.224-3.7246 4.0111-11.46 4.0111z" fill="#fff"/><path d="m380.32 17.889h10.505v66.851h-10.505z" fill="#fff"/><path d="m404.76 16.564h-13.067v-11.363h38.633v11.363h-13.067v68.176h-12.499z" fill="#fe9821"/><path d="m431.19 17.889h28.65v9.5502h-18.145v17.668h14.421v9.5502h-14.421v20.533h18.145v9.5502h-28.65zm30.253 0h15.567q8.1176 0 11.842 3.8201 3.7246 3.7246 3.7246 11.556v4.1066q0 10.41-6.8761 13.179v0.191q3.8201 1.146 5.3481 4.6796 1.6235 3.5336 1.6235 9.4546v11.747q0 2.865 0.191 4.6796 0.191 1.719 0.95501 3.4381h-10.696q-0.57301-1.6235-0.76402-3.056-0.191-1.4325-0.191-5.1571v-12.224q0-4.5841-1.528-6.3986-1.4325-1.8145-5.0616-1.8145h-3.6291v28.65h-10.505zm14.325 28.65q3.1516 0 4.6796-1.6235 1.6235-1.6235 1.6235-5.4436v-5.1571q0-3.6291-1.337-5.2526-1.2415-1.6235-4.0111-1.6235h-4.7751v19.1z" fill="#fff"/><path d="m495.52 17.889h15.567q8.1176 0 11.842 3.8201 3.7246 3.7246 3.7246 11.556v4.1066q0 10.41-6.8761 13.179v0.191q3.8201 1.146 5.3481 4.6796 1.6235 3.5336 1.6235 9.4546v11.747q0 2.865 0.191 4.6796 0.191 1.719 0.95502 3.4381h-10.696q-0.57301-1.6235-0.76401-3.056-0.19101-1.4325-0.19101-5.1571v-12.224q0-4.5841-1.528-6.3986-1.4325-1.8145-5.0616-1.8145h-3.6291v28.65h-10.505zm14.325 28.65q3.1516 0 4.6796-1.6235 1.6235-1.6235 1.6235-5.4436v-5.1571q0-3.6291-1.337-5.2526-1.2415-1.6235-4.0111-1.6235h-4.7751v19.1zm30.419-28.65h14.23l10.887 66.851h-10.505l-1.91-13.275v0.191h-11.938l-1.91 13.084h-9.7412zm11.46 44.695-4.6796-33.044h-0.191l-4.5841 33.044z" fill="#fff"/></g><g transform="matrix(.496 0 0 .496 40.832 -.043958)"><path d="m367.51 135.39c-24.933-19.106-49.39-38.153-64.574-66.199-7.2795-13.446-8.4678-27.498-1.9831-41.718 5.6176-12.318 21.434-23.691 40.27-15.092 11.493 5.2463 17.213 10.584 26.376 26.723 4.2527-9.8905 10.3-17.968 19.537-23.314 30.843-17.851 49.837 5.5808 50.816 28.638 0.56741 13.366-4.8892 24.599-12.177 35.173-15.37 22.502-37.149 39.079-58.266 55.79z" fill="#fe9821"/></g><g transform="matrix(.496 0 0 .496 615.42 .0056544)"><path d="m367.51 135.39c-24.933-19.106-49.39-38.153-64.574-66.199-7.2795-13.446-8.4678-27.498-1.9831-41.718 5.6176-12.318 21.434-23.691 40.27-15.092 11.493 5.2463 17.213 10.584 26.376 26.723 4.2527-9.8905 10.3-17.968 19.537-23.314 30.843-17.851 49.837 5.5808 50.816 28.638 0.56741 13.366-4.8892 24.599-12.177 35.173-15.37 22.502-37.149 39.079-58.266 55.79z" fill="#2097fc"/></g></g></svg>